<?xml version="1.0" standalone="no"?><!DOCTYPE svg PUBLIC "-//W3C//DTD SVG 1.1//EN" "http://www.w3.org/Graphics/SVG/1.1/DTD/svg11.dtd"><svg t="1659060092335" class="icon" viewBox="0 0 1024 1024" version="1.1" xmlns="http://www.w3.org/2000/svg" p-id="2284" width="32" height="32" xmlns:xlink="http://www.w3.org/1999/xlink"><defs><style type="text/css">@font-face { font-family: feedback-iconfont; src: url("//at.alicdn.com/t/font_1031158_u69w8yhxdu.woff2?t=1630033759944") format("woff2"), url("//at.alicdn.com/t/font_1031158_u69w8yhxdu.woff?t=1630033759944") format("woff"), url("//at.alicdn.com/t/font_1031158_u69w8yhxdu.ttf?t=1630033759944") format("truetype"); }
</style></defs><path d="M344.149333 808.234667l277.333334-618.666667a32 32 0 0 1 59.904 22.101333l-1.536 4.096-277.333334 618.666667a32 32 0 0 1-59.904-22.101333l1.536-4.096 277.333334-618.666667-277.333334 618.666667zM94.72 489.386667l181.333333-181.333334a32 32 0 0 1 48.341334 41.642667l-3.114667 3.584L162.56 512l158.72 158.72a32 32 0 0 1-41.642667 48.341333l-3.584-3.114666-181.333333-181.333334a32 32 0 0 1-3.114667-41.642666l3.114667-3.584 181.333333-181.333334-181.333333 181.333334z m608-181.333334a32 32 0 0 1 41.642667-3.114666l3.584 3.114666 181.333333 181.333334a32 32 0 0 1 3.114667 41.642666l-3.114667 3.584-181.333333 181.333334a32 32 0 0 1-48.341334-41.642667l3.114667-3.584L861.44 512l-158.72-158.72a32 32 0 0 1 0-45.226667z" p-id="2285"></path></svg>