<?xml version="1.0" standalone="no"?><!DOCTYPE svg PUBLIC "-//W3C//DTD SVG 1.1//EN" "http://www.w3.org/Graphics/SVG/1.1/DTD/svg11.dtd"><svg t="1659079388964" class="icon" viewBox="0 0 1024 1024" version="1.1" xmlns="http://www.w3.org/2000/svg" p-id="4356" width="32" height="32" xmlns:xlink="http://www.w3.org/1999/xlink"><defs><style type="text/css">@font-face { font-family: feedback-iconfont; src: url("//at.alicdn.com/t/font_1031158_u69w8yhxdu.woff2?t=1630033759944") format("woff2"), url("//at.alicdn.com/t/font_1031158_u69w8yhxdu.woff?t=1630033759944") format("woff"), url("//at.alicdn.com/t/font_1031158_u69w8yhxdu.ttf?t=1630033759944") format("truetype"); }
</style></defs><path d="M896 0H128a128 128 0 0 0-128 128v768a128 128 0 0 0 128 128h768a128 128 0 0 0 128-128V128a128 128 0 0 0-128-128z m64 896a64 64 0 0 1-64 64H128a64 64 0 0 1-64-64V128a64 64 0 0 1 64-64h768a64 64 0 0 1 64 64z" p-id="4357"></path><path d="M832 320a32 32 0 0 0 0-64h-192a32 32 0 0 0-32 32V512a32 32 0 0 0 32 32h160V704H640a32 32 0 0 0 0 64h192a32 32 0 0 0 32-32V512a32 32 0 0 0-32-32h-160V320zM384 256H192a32 32 0 0 0-32 32v448a32 32 0 0 0 32 32h192a32 32 0 0 0 32-32v-448A32 32 0 0 0 384 256z m-32 64v384h-128V320z" p-id="4358"></path><path d="M512 736m-32 0a32 32 0 1 0 64 0 32 32 0 1 0-64 0Z" p-id="4359"></path></svg>