<?xml version="1.0" standalone="no"?><!DOCTYPE svg PUBLIC "-//W3C//DTD SVG 1.1//EN" "http://www.w3.org/Graphics/SVG/1.1/DTD/svg11.dtd"><svg t="1659078704822" class="icon" viewBox="0 0 1024 1024" version="1.1" xmlns="http://www.w3.org/2000/svg" p-id="4066" width="32" height="32" xmlns:xlink="http://www.w3.org/1999/xlink"><defs><style type="text/css">@font-face { font-family: feedback-iconfont; src: url("//at.alicdn.com/t/font_1031158_u69w8yhxdu.woff2?t=1630033759944") format("woff2"), url("//at.alicdn.com/t/font_1031158_u69w8yhxdu.woff?t=1630033759944") format("woff"), url("//at.alicdn.com/t/font_1031158_u69w8yhxdu.ttf?t=1630033759944") format("truetype"); }
</style></defs><path d="M796.8 566.4c-67.2-67.2-172.8-73.6-246.4-19.2l-137.6-137.6 89.6-89.6c12.8-12.8 12.8-32 0-44.8s-32-12.8-44.8 0l-89.6 89.6-92.8-89.6 89.6-89.6c12.8-12.8 12.8-32 0-44.8s-32-12.8-44.8 0L230.4 227.2l-22.4-22.4c-12.8-12.8-32-12.8-44.8 0s-12.8 32 0 44.8l342.4 342.4c-22.4 32-35.2 70.4-35.2 112 0 51.2 19.2 99.2 57.6 134.4 38.4 38.4 86.4 57.6 134.4 57.6s99.2-19.2 134.4-57.6c73.6-73.6 73.6-195.2 0-272z m-44.8 227.2c-51.2 51.2-131.2 51.2-182.4 0-25.6-25.6-38.4-57.6-38.4-89.6s12.8-67.2 38.4-89.6c25.6-25.6 57.6-38.4 89.6-38.4s64 12.8 89.6 38.4c51.2 48 51.2 131.2 3.2 179.2z" p-id="4067"></path></svg>