<?xml version="1.0" standalone="no"?><!DOCTYPE svg PUBLIC "-//W3C//DTD SVG 1.1//EN" "http://www.w3.org/Graphics/SVG/1.1/DTD/svg11.dtd"><svg t="1659088073665" class="icon" viewBox="0 0 1024 1024" version="1.1" xmlns="http://www.w3.org/2000/svg" p-id="3062" width="32" height="32" xmlns:xlink="http://www.w3.org/1999/xlink"><defs><style type="text/css">@font-face { font-family: feedback-iconfont; src: url("//at.alicdn.com/t/font_1031158_u69w8yhxdu.woff2?t=1630033759944") format("woff2"), url("//at.alicdn.com/t/font_1031158_u69w8yhxdu.woff?t=1630033759944") format("woff"), url("//at.alicdn.com/t/font_1031158_u69w8yhxdu.ttf?t=1630033759944") format("truetype"); }
</style></defs><path d="M847.140927 89.169318A365.976806 365.976806 0 0 0 722.467278 1.507168a18.833005 18.833005 0 0 0-25.177532 23.488474 331.361658 331.361658 0 0 1-87.018196 350.690824 331.329988 331.329988 0 0 1-355.905794 62.368495 18.811892 18.811892 0 0 0-25.177532 23.477916 364.942258 364.942258 0 0 0 54.14489 101.248516c-41.804204 35.691923-66.601698 85.181344-68.871371 138.819517a143.918363 143.918363 0 0 0-18.991354-1.266794c-83.017238 0-150.558475 71.774441-150.558475 159.985534 0 88.211094 67.541237 159.974978 150.558475 159.974977l415.297322-0.031669c94.302262-6.059498 168.166912-88.717811 168.166912-188.171703 0-58.45199-25.758146-112.354077-68.427993-147.676518a366.705213 366.705213 0 0 0 118.445246-74.213019c72.017243-67.171755 113.557532-158.349258 116.998989-256.758045 3.441457-98.408786-31.648738-192.26767-98.809938-264.274355zM741.289726 832.080699c0 79.660234-58.399207 145.818554-131.757139 150.569031H195.459832c-62.273485 0-112.934691-54.883853-112.934691-122.340637 0-67.456784 50.661206-122.340637 112.934691-122.340637a105.038341 105.038341 0 0 1 32.514381 5.141073 18.833005 18.833005 0 0 0 24.565249-19.571969 155.25617 155.25617 0 0 1-0.612284-13.808055c0-45.488464 20.247592-87.852169 55.601703-118.18133l0.380038 0.453935c72.492291 77.728373 170.996086 117.051772 269.732127 117.051772 29.368509-0.010557 58.684235-3.853165 87.408791-10.83109 0.179462 0.116123 0.274472 0.295585 0.453934 0.390595 46.734144 26.117071 75.785955 77.263882 75.785955 133.467312z m167.037355-479.946046c-3.071976 88.358886-40.379061 170.236009-105.038342 230.535407-133.488425 124.462517-343.353975 117.167895-467.848162-16.331087a329.57759 329.57759 0 0 1-54.693834-78.910714c123.82912 36.29365 259.312746 5.236082 355.187943-84.199579 95.896311-89.414548 136.328155-222.385699 108.785941-348.463378a330.147647 330.147647 0 0 1 74.888642 60.077709c60.299398 64.659281 91.8109 148.932756 88.717812 237.291642z m-484.105353-181.679383a18.769665 18.769665 0 0 0 26.613232 0l26.951044-26.9616 26.940487 26.9616a18.769665 18.769665 0 0 0 26.613232 0 18.811892 18.811892 0 0 0 0-26.623788l-26.951044-26.940487 26.254307-26.264864a18.811892 18.811892 0 1 0-26.613232-26.602676L477.786004 90.267206l-26.254307-26.264864a18.811892 18.811892 0 1 0-26.613233 26.613232l26.243751 26.264864-26.929931 26.940487a18.811892 18.811892 0 0 0-0.010556 26.623789zM82.535698 501.099079l26.940487 26.9616a18.769665 18.769665 0 0 0 26.613232 0 18.811892 18.811892 0 0 0 0-26.623789L109.159486 474.496403l26.254308-26.264863a18.811892 18.811892 0 1 0-26.623789-26.602676l-26.243751 26.254307-26.24375-26.264863A18.811892 18.811892 0 1 0 29.668159 448.242096l26.24375 26.264864-26.940487 26.940487a18.811892 18.811892 0 1 0 26.602675 26.623789l26.951044-26.961601z m919.344125 357.94322l-26.951044-26.940487 26.254307-26.264864a18.811892 18.811892 0 1 0-26.613232-26.602675L948.326103 805.478023l-26.254307-26.264863a18.811892 18.811892 0 1 0-26.613232 26.613232l26.254307 26.264863-26.951043 26.940488a18.811892 18.811892 0 1 0 26.613232 26.623788l26.951043-26.9616 26.940488 26.9616a18.769665 18.769665 0 0 0 26.613232 0 18.811892 18.811892 0 0 0 0-26.623788z" p-id="3063"></path></svg>